<svg xmlns="http://www.w3.org/2000/svg" version="1.1" xmlns:xlink="http://www.w3.org/1999/xlink" xmlns:svgjs="http://svgjs.dev/svgjs" viewBox="0 0 800 800"><defs><linearGradient x1="50%" y1="0%" x2="50%" y2="100%" id="cccoil-grad"><stop stop-color="hsl(162, 100%, 58%)" stop-opacity="1" offset="0%"></stop><stop stop-color="hsl(270, 73%, 53%)" stop-opacity="1" offset="100%"></stop></linearGradient></defs><g stroke="url(#cccoil-grad)" fill="none" stroke-linecap="round"><circle r="351" cx="400" cy="400" stroke-width="5.5" stroke-dasharray="2205 2205" transform="rotate(360, 400, 400)" opacity="0.05"></circle><circle r="331.5" cx="400" cy="400" stroke-width="5.5" stroke-dasharray="1960 2083" transform="rotate(339, 400, 400)" opacity="0.11"></circle><circle r="312" cx="400" cy="400" stroke-width="5.5" stroke-dasharray="1730 1960" transform="rotate(318, 400, 400)" opacity="0.16"></circle><circle r="292.5" cx="400" cy="400" stroke-width="5.5" stroke-dasharray="1514 1838" transform="rotate(296, 400, 400)" opacity="0.22"></circle><circle r="273" cx="400" cy="400" stroke-width="5.5" stroke-dasharray="1312 1715" transform="rotate(275, 400, 400)" opacity="0.27"></circle><circle r="253.5" cx="400" cy="400" stroke-width="5.5" stroke-dasharray="1124 1593" transform="rotate(254, 400, 400)" opacity="0.33"></circle><circle r="234" cx="400" cy="400" stroke-width="5.5" stroke-dasharray="951 1470" transform="rotate(233, 400, 400)" opacity="0.39"></circle><circle r="214.5" cx="400" cy="400" stroke-width="5.5" stroke-dasharray="793 1348" transform="rotate(212, 400, 400)" opacity="0.44"></circle><circle r="195" cx="400" cy="400" stroke-width="5.5" stroke-dasharray="649 1225" transform="rotate(191, 400, 400)" opacity="0.50"></circle><circle r="175.5" cx="400" cy="400" stroke-width="5.5" stroke-dasharray="519 1103" transform="rotate(169, 400, 400)" opacity="0.55"></circle><circle r="156" cx="400" cy="400" stroke-width="5.5" stroke-dasharray="404 980" transform="rotate(148, 400, 400)" opacity="0.61"></circle><circle r="136.5" cx="400" cy="400" stroke-width="5.5" stroke-dasharray="303 858" transform="rotate(127, 400, 400)" opacity="0.66"></circle><circle r="117" cx="400" cy="400" stroke-width="5.5" stroke-dasharray="216 735" transform="rotate(106, 400, 400)" opacity="0.72"></circle><circle r="97.5" cx="400" cy="400" stroke-width="5.5" stroke-dasharray="144 613" transform="rotate(85, 400, 400)" opacity="0.78"></circle><circle r="78" cx="400" cy="400" stroke-width="5.5" stroke-dasharray="86 490" transform="rotate(64, 400, 400)" opacity="0.83"></circle><circle r="58.5" cx="400" cy="400" stroke-width="5.5" stroke-dasharray="43 368" transform="rotate(42, 400, 400)" opacity="0.89"></circle><circle r="39" cx="400" cy="400" stroke-width="5.5" stroke-dasharray="14 245" transform="rotate(21, 400, 400)" opacity="0.94"></circle><circle r="19.5" cx="400" cy="400" stroke-width="5.5" stroke-dasharray="0 123" opacity="1.00"></circle></g></svg>