<svg xmlns="http://www.w3.org/2000/svg" version="1.1" xmlns:xlink="http://www.w3.org/1999/xlink" xmlns:svgjs="http://svgjs.dev/svgjs" viewBox="0 0 800 800"><defs><linearGradient x1="50%" y1="0%" x2="50%" y2="100%" id="gggyrate-grad"><stop stop-color="hsl(162, 100%, 58%)" stop-opacity="1" offset="0%"></stop><stop stop-color="hsl(270, 73%, 53%)" stop-opacity="1" offset="100%"></stop></linearGradient></defs><g stroke-width="1" stroke="url(#gggyrate-grad)" fill="none"><path d="M249.6966894965908 -1767.7795729094155C342.7043780361 -1821.4679154212336 457.2956219639 -1821.4679154212336 550.3033105034096 -1767.7645425783653L2202.196814260081 -814.0449464410817C2295.20450279959 -760.3566039292639 2352.50012476349 -661.1113280038624 2352.50012476349 -553.7196126491758V1353.7195796253914C2352.50012476349 1461.1112949800777 2295.20450279959 1560.3565709054792 2202.196814260081 1614.059943748347L550.3033105034096 2567.7795398856306C457.2956219639 2621.467882397448 342.7043780361 2621.467882397448 249.6966894965908 2567.7645095545804L-1402.1968142600806 1614.0449134172973C-1495.2045027995903 1560.3565709054792 -1552.50012476349 1461.1112949800777 -1552.50012476349 1353.7195796253914V-553.7196126491758C-1552.50012476349 -661.1113280038624 -1495.2045027995903 -760.3566039292639 -1402.1968142600806 -814.0599767721317L249.6966894965908 -1767.7795729094155Z " transform="rotate(27.5, 400, 400)" opacity="0.05"></path><path d="M252.42947696028887 -1728.3653952498944C343.74611661726203 -1781.0775860796791 456.25388338273797 -1781.0775860796791 547.5705230397111 -1728.3506381975903L2169.4295994553518 -791.971398353712C2260.746239112325 -739.259207523927 2317.000122495063 -641.8183911608057 2317.000122495063 -536.3792524489315V1336.3792272388255C2317.000122495063 1441.8183659506994 2260.746239112325 1539.2591823138205 2169.4295994553518 1591.986130195909L547.5705230397111 2528.365370039787C456.25388338273797 2581.077560869573 343.74611661726203 2581.077560869573 252.42947696028887 2528.350612987483L-1369.429599455352 1591.9713731436054C-1460.746239112325 1539.2591823138205 -1517.000122495063 1441.8183659506994 -1517.000122495063 1336.3792272388255V-536.3792524489315C-1517.000122495063 -641.8183911608057 -1460.746239112325 -739.259207523927 -1369.429599455352 -791.9861554060155L252.42947696028887 -1728.3653952498944Z " transform="rotate(27, 400, 400)" opacity="0.07"></path><path d="M255.16226442398715 -1688.951003967326C344.78785519842404 -1740.6870431150778 455.21214480157596 -1740.6870431150778 544.8377355760131 -1688.9365201937685L2136.662384650623 -769.8976366432951C2226.28797542506 -718.1615974955434 2281.5001202266358 -622.5252406947022 2281.5001202266358 -519.0386786256404V1319.039088475306C2281.5001202266358 1422.5256505443676 2226.28797542506 1518.162007345209 2136.662384650623 1569.912530266518L544.8377355760131 2488.9514138169916C455.21214480157596 2540.687452964743 344.78785519842404 2540.687452964743 255.16226442398715 2488.9369300434337L-1336.6623846506232 1569.898046492961C-1426.2879754250598 1518.162007345209 -1481.500120226636 1422.5256505443676 -1481.500120226636 1319.039088475306V-519.0386786256404C-1481.500120226636 -622.5252406947022 -1426.2879754250598 -718.1615974955434 -1336.6623846506232 -769.9121204168523L255.16226442398715 -1688.951003967326Z " transform="rotate(26.5, 400, 400)" opacity="0.09"></path><path d="M257.89505188768567 -1649.536841566594C345.8295937795856 -1700.2967290323127 454.1704062204144 -1700.2967290323127 542.1049481123146 -1649.5226310717826L2103.8951698458945 -747.8241038147144C2191.8297117377947 -697.0642163489956 2246.0001179582086 -603.2323191104342 2246.0001179582086 -501.6983336841852V1301.698720829951C2246.0001179582086 1403.2327062562003 2191.8297117377947 1497.0646034947617 2103.8951698458945 1547.8387014552914L542.1049481123146 2449.537228712359C454.1704062204144 2500.297116178078 345.8295937795856 2500.297116178078 257.89505188768567 2449.5230182175483L-1303.8951698458945 1547.8244909604805C-1391.8297117377945 1497.0646034947617 -1446.0001179582089 1403.2327062562003 -1446.0001179582089 1301.698720829951V-501.6983336841852C-1446.0001179582089 -603.2323191104342 -1391.8297117377945 -697.0642163489956 -1303.8951698458945 -747.8383143095252L257.89505188768567 -1649.536841566594Z " transform="rotate(26, 400, 400)" opacity="0.10"></path><path d="M260.62783935138395 -1610.122801236174C346.8713323607474 -1659.9065370198598 453.12866763925285 -1659.9065370198598 539.372160648616 -1610.1088640201092L2071.1279550411655 -725.7506930564459C2157.371448050529 -675.9669572727605 2210.5001156897815 -583.9395195964792 2210.5001156897815 -484.35811081304246V1284.3582311142836C2210.5001156897815 1383.93963989772 2157.371448050529 1475.9670775740015 2071.1279550411655 1525.7647505737514L539.372160648616 2410.122921537414C453.12866763925285 2459.9066573211003 346.8713323607474 2459.9066573211003 260.62783935138395 2410.1089843213504L-1271.1279550411657 1525.750813357687C-1357.3714480505291 1475.9670775740015 -1410.5001156897818 1383.93963989772 -1410.5001156897818 1284.3582311142836V-484.35811081304246C-1410.5001156897818 -583.9395195964792 -1357.3714480505291 -675.9669572727605 -1271.1279550411657 -725.7646302725107L260.62783935138395 -1610.122801236174Z " transform="rotate(25.5, 400, 400)" opacity="0.12"></path><path d="M263.36062681508224 -1570.708654094231C347.91307094190915 -1619.5162381958835 452.08692905809085 -1619.5162381958835 536.6393731849175 -1570.6949901569124L2038.3607402364369 -703.6771754866545C2122.913184363264 -654.869591385002 2175.0001134213544 -564.6466132710007 2175.0001134213544 -467.0177811303763V1267.0178482101392C2175.0001134213544 1364.6466803507633 2122.913184363264 1454.8696584647646 2038.3607402364369 1503.6909065037357L536.6393731849175 2370.7087211739936C452.08692905809085 2419.516305275645 347.91307094190915 2419.516305275645 263.36062681508224 2370.695057236675L-1238.3607402364369 1503.6772425664176C-1322.913184363264 1454.8696584647646 -1375.0001134213546 1364.6466803507633 -1375.0001134213546 1267.0178482101392V-467.0177811303763C-1375.0001134213546 -564.6466132710007 -1322.913184363264 -654.869591385002 -1238.3607402364369 -703.6908394239726L263.36062681508224 -1570.708654094231Z " transform="rotate(25, 400, 400)" opacity="0.14"></path><path d="M266.09341427878076 -1531.2944764347094C348.95480952307116 -1579.125908854329 451.04519047692884 -1579.125908854329 533.906585721219 -1531.2810857761374L2005.5935254317083 -681.6036273992845C2088.454920675999 -633.7721949796651 2139.5001111529273 -545.3536764279438 2139.5001111529273 -449.67742093013226V1249.6774958235728C2139.5001111529273 1345.3537513213846 2088.454920675999 1433.7722698731059 2005.5935254317083 1481.6170929512973L533.906585721219 2331.29455132815C451.04519047692884 2379.125983747769 348.95480952307116 2379.125983747769 266.09341427878076 2331.2811606695777L-1205.5935254317083 1481.6037022927258C-1288.4549206759987 1433.7722698731059 -1339.5001111529275 1345.3537513213846 -1339.5001111529275 1249.6774958235728V-449.67742093013226C-1339.5001111529275 -545.3536764279438 -1288.4549206759987 -633.7721949796651 -1205.5935254317083 -681.6170180578565L266.09341427878076 -1531.2944764347094Z " transform="rotate(24.5, 400, 400)" opacity="0.16"></path><path d="M268.82620174247904 -1491.8803140339774C349.99654810423294 -1538.7355947715637 450.00345189576706 -1538.7355947715637 531.173798257521 -1491.8671966541515L1972.8263106269792 -659.530094570704C2053.9966569887333 -612.6748138331175 2104.0001088845 -526.0607548436762 2104.0001088845 -432.33707598867704V1232.3371281782179C2104.0001088845 1326.0608070332169 2053.9966569887333 1412.6748660226585 1972.8263106269792 1459.5432641400703L531.173798257521 2291.8803662235177C450.00345189576706 2338.735646961104 349.99654810423294 2338.735646961104 268.82620174247904 2291.867248843692L-1172.8263106269794 1459.5301467602449C-1253.9966569887333 1412.6748660226585 -1304.0001088845004 1326.0608070332169 -1304.0001088845004 1232.3371281782179V-432.33707598867704C-1304.0001088845004 -526.0607548436762 -1253.9966569887333 -612.6748138331175 -1172.8263106269794 -659.5432119505294L268.82620174247904 -1491.8803140339774Z " transform="rotate(24, 400, 400)" opacity="0.17"></path><path d="M271.5589586885992 -1452.466166892034C351.0382561678166 -1498.3452959475876 448.96168279702715 -1498.3452959475876 528.4409802762448 -1452.4533227909546L1940.059065304673 -637.4565770009121C2019.53836278389 -591.5774479453589 2068.5000760984954 -506.7678485181975 2068.5000760984954 -414.9967463060109V1214.9967452740739C2068.5000760984954 1306.7678474862605 2019.53836278389 1391.5774469134217 1940.059065304673 1437.4694200700542L528.4409802762448 2252.466165860097C448.96168279702715 2298.34529491565 351.0382561678166 2298.34529491565 271.5589586885992 2252.4533217590174L-1140.0591263398287 1437.4565759689754C-1219.538423819046 1391.5774469134217 -1268.5001371336516 1306.7678474862605 -1268.5001371336516 1214.9967452740739V-414.9967463060109C-1268.5001371336516 -506.7678485181975 -1219.538423819046 -591.5774479453589 -1140.0591263398287 -637.4694211019914L271.5589586885992 -1452.466166892034Z " transform="rotate(23.5, 400, 400)" opacity="0.19"></path><path d="M274.2917461522975 -1413.0520044913017C352.0799947489784 -1457.9549818648222 447.91994421586537 -1457.9549818648222 525.7081928125463 -1413.0394336689687L1907.2918504999438 -615.3830441723314C1985.0800990966245 -570.4800667988111 2033.0000738300682 -487.47492693392996 2033.0000738300682 -397.6564013645557V1197.6563776287185C2033.0000738300682 1287.4749031980928 1985.0800990966245 1370.4800430629743 1907.2918504999438 1415.3955912588272L525.7081928125463 2213.0519807554642C447.91994421586537 2257.9549581289853 352.0799947489784 2257.9549581289853 274.2917461522975 2213.039409933132L-1107.2919115351 1415.383020436495C-1185.0801601317808 1370.4800430629743 -1233.0001348652245 1287.4749031980928 -1233.0001348652245 1197.6563776287185V-397.6564013645557C-1233.0001348652245 -487.47492693392996 -1185.0801601317808 -570.4800667988111 -1107.2919115351 -615.3956149946644L274.2917461522975 -1413.0520044913017Z " transform="rotate(23, 400, 400)" opacity="0.21"></path><path d="M277.024533615996 -1373.6378420905694C353.12173333014016 -1417.5646677820569 446.8782056347036 -1417.5646677820569 522.9754053488477 -1373.6255445469828L1874.5246356952152 -593.3095113437507C1950.6218354093594 -549.3826856522633 1997.500071561641 -468.1820053496622 1997.500071561641 -380.31605642310046V1180.3160099833635C1997.500071561641 1268.1819589099255 1950.6218354093594 1349.3826392125266 1874.5246356952152 1393.3217624476001L522.9754053488477 2173.6377956508322C446.8782056347036 2217.5646213423197 353.12173333014016 2217.5646213423197 277.024533615996 2173.625498107246L-1074.5246967303715 1393.309464904014C-1150.6218964445156 1349.3826392125266 -1197.5001325967974 1268.1819589099255 -1197.5001325967974 1180.3160099833635V-380.31605642310046C-1197.5001325967974 -468.1820053496622 -1150.6218964445156 -549.3826856522633 -1074.5246967303715 -593.321808887337L277.024533615996 -1373.6378420905694Z " transform="rotate(22.5, 400, 400)" opacity="0.23"></path><path d="M279.7573210796943 -1334.2236796898371C354.16347191130194 -1377.1743536992915 445.8364670535418 -1377.1743536992915 520.2426178851495 -1334.211655424997L1841.7574208904866 -571.2359785151702C1916.1635717220938 -528.2853045057159 1962.000069293214 -448.8890837653946 1962.000069293214 -362.97571148164525V1162.9756423380081C1962.000069293214 1248.8890146217577 1916.1635717220938 1328.2852353620788 1841.7574208904866 1371.247933636373L520.2426178851495 2134.2236105462C445.8364670535418 2177.174284555654 354.16347191130194 2177.174284555654 279.7573210796943 2134.21158628136L-1041.7574819256427 1371.2359093715331C-1116.1636327572503 1328.2852353620788 -1162.0001303283702 1248.8890146217577 -1162.0001303283702 1162.9756423380081V-362.97571148164525C-1162.0001303283702 -448.8890837653946 -1116.1636327572503 -528.2853045057159 -1041.7574819256427 -571.2480027800102L279.7573210796943 -1334.2236796898371Z " transform="rotate(22, 400, 400)" opacity="0.24"></path><path d="M282.4901085433926 -1294.8095172891049C355.20521049246395 -1336.7840396165261 444.7947284723798 -1336.7840396165261 517.5098304214512 -1294.797766303011L1808.9902060857576 -549.1624456865893C1881.7053080348287 -507.18792335916805 1926.5000670247869 -429.59616218112706 1926.5000670247869 -345.63536654019003V1145.6352746926532C1926.5000670247869 1229.59607033359 1881.7053080348287 1307.187831511631 1808.9902060857576 1349.174104825146L517.5098304214512 2094.809425441568C444.7947284723798 2136.783947768989 355.20521049246395 2136.783947768989 282.4901085433926 2094.797674455474L-1008.9902671209139 1349.1623538390527C-1081.705369069985 1307.187831511631 -1126.500128059943 1229.59607033359 -1126.500128059943 1145.6352746926532V-345.63536654019003C-1126.500128059943 -429.59616218112706 -1081.705369069985 -507.18792335916805 -1008.9902671209139 -549.1741966726829L282.4901085433926 -1294.8095172891049Z " transform="rotate(21.5, 400, 400)" opacity="0.26"></path><path d="M285.2228960070911 -1255.3953548883726C356.24694907362573 -1296.393725533761 443.752989891218 -1296.393725533761 514.7770429577527 -1255.3838771810251L1776.222991281029 -527.0889128580085C1847.2470443475636 -486.0905422126202 1891.0000647563597 -410.30324059685927 1891.0000647563597 -328.2950215987348V1128.2949070472982C1891.0000647563597 1210.3031260454227 1847.2470443475636 1286.0904276611836 1776.222991281029 1327.100276013919L514.7770429577527 2055.395240336936C443.752989891218 2096.393610982324 356.24694907362573 2096.393610982324 285.2228960070911 2055.3837626295885L-976.2230523161852 1327.0887983065718C-1047.2471053827198 1286.0904276611836 -1091.000125791516 1210.3031260454227 -1091.000125791516 1128.2949070472982V-328.2950215987348C-1091.000125791516 -410.30324059685927 -1047.2471053827198 -486.0905422126202 -976.2230523161852 -527.1003905653558L285.2228960070911 -1255.3953548883726Z " transform="rotate(21, 400, 400)" opacity="0.28"></path><path d="M287.9556834707894 -1215.9811924876403C357.2886876547875 -1256.0034114509956 442.71125131005624 -1256.0034114509956 512.0442554940544 -1215.9699880590392L1743.4557764763003 -505.0153800294278C1812.788780660298 -464.9931610660726 1855.5000624879326 -391.0103190125915 1855.5000624879326 -310.9546766572796V1110.9545394019433C1855.5000624879326 1191.010181757255 1812.788780660298 1264.9930238107363 1743.4557764763003 1305.026447202692L512.0442554940544 2015.9810552323033C442.71125131005624 2056.003274195659 357.2886876547875 2056.003274195659 287.9556834707894 2015.9698508037027L-943.4558375114564 1305.015242774091C-1012.7888416954545 1264.9930238107363 -1055.5001235230889 1191.010181757255 -1055.5001235230889 1110.9545394019433V-310.9546766572796C-1055.5001235230889 -391.0103190125915 -1012.7888416954545 -464.9931610660726 -943.4558375114564 -505.02658445802865L287.9556834707894 -1215.9811924876403Z " transform="rotate(20.5, 400, 400)" opacity="0.30"></path><path d="M290.68847093448767 -1176.5669080165956C358.3304262359493 -1215.6129752979177 441.66951272889446 -1215.6129752979177 509.3114680303561 -1176.5559768667408L1710.6885616715713 -482.94172513053445C1778.330516973033 -443.8956578492124 1820.0000602195055 -371.7172753580114 1820.0000602195055 -293.6142096455119V1093.6142938269008C1820.0000602195055 1171.7173595394001 1778.330516973033 1243.895742030601 1710.6885616715713 1282.9527404617775L509.3114680303561 1976.5669921979838C441.66951272889446 2015.6130594793062 358.3304262359493 2015.6130594793062 290.68847093448767 1976.5560610481293L-910.6886227067278 1282.941809311923C-978.3305780081891 1243.895742030601 -1020.0001212546618 1171.7173595394001 -1020.0001212546618 1093.6142938269008V-293.6142096455119C-1020.0001212546618 -371.7172753580114 -978.3305780081891 -443.8956578492124 -910.6886227067278 -482.9526562803891L290.68847093448767 -1176.5669080165956Z " transform="rotate(20, 400, 400)" opacity="0.31"></path><path d="M293.4212583981862 -1137.1528829449649C359.37216481711107 -1175.222798544254 440.6277741477327 -1175.222798544254 506.57868056665757 -1137.1422250738565L1677.9213468668427 -460.8683296310554C1743.8722532857673 -422.79841403176636 1784.5000579510784 -352.4244911028454 1784.5000579510784 -276.27400203315847V1076.2737888524434C1784.5000579510784 1152.4242779221304 1743.8722532857673 1222.7982008510512 1677.9213468668427 1260.8787743214484L506.57868056665757 1937.1526697642498C440.6277741477327 1975.2225853635387 359.37216481711107 1975.2225853635387 293.4212583981862 1937.1420118931414L-877.9214079019989 1260.8681164503405C-943.8723143209239 1222.7982008510512 -984.5001189862347 1152.4242779221304 -984.5001189862347 1076.2737888524434V-276.27400203315847C-984.5001189862347 -352.4244911028454 -943.8723143209239 -422.79841403176636 -877.9214079019989 -460.87898750216357L293.4212583981862 -1137.1528829449649Z " transform="rotate(19.5, 400, 400)" opacity="0.33"></path><path d="M296.15404586188447 -1097.7387052854435C360.41390339827285 -1134.8324692026995 439.5860355665709 -1134.8324692026995 503.8458931029593 -1097.7283206930815L1645.154132062114 -438.79478154368553C1709.4139895985027 -401.7010176264296 1749.0000556826512 -333.1315542597886 1749.0000556826512 -258.9336418329142V1058.9334364658775C1749.0000556826512 1133.1313488927517 1709.4139895985027 1201.700812259393 1645.154132062114 1238.804960769011L503.8458931029593 1897.7384999184064C439.5860355665709 1934.8322638356626 360.41390339827285 1934.8322638356626 296.15404586188447 1897.7281153260446L-845.1541930972702 1238.7945761766487C-909.4140506336587 1201.700812259393 -949.0001167178077 1133.1313488927517 -949.0001167178077 1058.9334364658775V-258.9336418329142C-949.0001167178077 -333.1315542597886 -909.4140506336587 -401.7010176264296 -845.1541930972702 -438.80516613604743L296.15404586188447 -1097.7387052854435Z " transform="rotate(19, 400, 400)" opacity="0.35"></path><path d="M298.88683332558276 -1058.3244360731878C361.45564197943486 -1094.442048308411 438.5442969854089 -1094.442048308411 501.113105639261 -1058.3143247595722L1612.386917257385 -416.7211419035814C1674.955725911237 -380.6035296683584 1713.500053414224 -313.83852586399735 1713.500053414224 -241.59319007993554V1041.593175632046C1713.500053414224 1113.8385114161078 1674.955725911237 1180.6035152204686 1612.386917257385 1216.7312387693073L501.113105639261 1858.3244216252979C438.5442969854089 1894.442033860521 361.45564197943486 1894.442033860521 298.88683332558276 1858.3143103116827L-812.3869782925415 1216.7211274556917C-874.9557869463933 1180.6035152204686 -913.5001144493806 1113.8385114161078 -913.5001144493806 1041.593175632046V-241.59319007993554C-913.5001144493806 -313.83852586399735 -874.9557869463933 -380.6035296683584 -812.3869782925415 -416.7312532171968L298.88683332558276 -1058.3244360731878Z " transform="rotate(18.5, 400, 400)" opacity="0.37"></path><path d="M301.61962078928104 -1018.9102736724556C362.49738056059664 -1054.0517342256455 437.5025584042471 -1054.0517342256455 498.3803181755627 -1018.9004356375863L1579.6197024526564 -394.6476090750007C1640.497462223972 -359.5061485218107 1678.000051145797 -294.5456042797298 1678.000051145797 -224.25284513848055V1024.2528079866906C1678.000051145797 1094.54556712794 1640.497462223972 1159.5061113700212 1579.6197024526564 1194.6574099580803L498.3803181755627 1818.9102365206659C437.5025584042471 1854.0516970738558 362.49738056059664 1854.0516970738558 301.61962078928104 1818.9003984857964L-779.6197634878127 1194.6475719232108C-840.4975232591281 1159.5061113700212 -878.0001121809535 1094.54556712794 -878.0001121809535 1024.2528079866906V-224.25284513848055C-878.0001121809535 -294.5456042797298 -840.4975232591281 -359.5061485218107 -779.6197634878127 -394.65744710986974L301.61962078928104 -1018.9102736724556Z " transform="rotate(18, 400, 400)" opacity="0.38"></path><path d="M304.35240825297956 -979.4961112717233C363.5391191417584 -1013.6614201428802 436.46081982308533 -1013.6614201428802 495.6475307118642 -979.4865465156004L1546.8524876479278 -372.57407624641985C1606.0391985367069 -338.408767375263 1642.5000488773699 -275.2526826954621 1642.5000488773699 -206.9125001970251V1006.9124403413357C1642.5000488773699 1075.2526228397728 1606.0391985367069 1138.408707519574 1546.8524876479278 1172.5835811468532L495.6475307118642 1779.4960514160334C436.46081982308533 1813.6613602871907 363.5391191417584 1813.6613602871907 304.35240825297956 1779.486486659911L-746.852548683084 1172.5740163907303C-806.0392595718629 1138.408707519574 -842.5001099125263 1075.2526228397728 -842.5001099125263 1006.9124403413357V-206.9125001970251C-842.5001099125263 -275.2526826954621 -806.0392595718629 -338.408767375263 -746.852548683084 -372.58364100254255L304.35240825297956 -979.4961112717233Z " transform="rotate(17.5, 400, 400)" opacity="0.40"></path><path d="M307.08519571667784 -940.081948870991C364.5808577229202 -973.2711060601148 435.41908124192355 -973.2711060601148 492.9147432481659 -940.0726573936145L1514.0852728431987 -350.50054341783914C1571.5809348494413 -317.3113862287154 1607.0000466089427 -255.95976111119455 1607.0000466089427 -189.57215525557012V989.5720726959808C1607.0000466089427 1055.9596785516046 1571.5809348494413 1117.3113036691257 1514.0852728431987 1150.5097523356258L492.9147432481659 1740.0818663114014C435.41908124192355 1773.2710235005252 364.5808577229202 1773.2710235005252 307.08519571667784 1740.0725748340246L-714.0853338783552 1150.5004608582494C-771.5809958845975 1117.3113036691257 -807.0001076440992 1055.9596785516046 -807.0001076440992 989.5720726959808V-189.57215525557012C-807.0001076440992 -255.95976111119455 -771.5809958845975 -317.3113862287154 -714.0853338783552 -350.5098348952155L307.08519571667784 -940.081948870991Z " transform="rotate(17, 400, 400)" opacity="0.42"></path><path d="M309.817952662798 -900.6677864702588C365.62256578650386 -932.8807919773494 434.37731214318364 -932.8807919773494 490.1819252668895 -900.6587682716286L1481.3180275208924 -328.4270105892583C1537.122640644598 -296.21400508216766 1571.500013822938 -236.66683952692676 1571.500013822938 -172.2318103141149V972.2317050506254C1571.500013822938 1036.6667342634373 1537.122640644598 1096.2138998186783 1481.3180275208924 1128.4359235243987L490.1819252668895 1700.667681206769C434.37731214318364 1732.8806867138596 365.62256578650386 1732.8806867138596 309.817952662798 1700.6586630081392L-681.3181495912047 1128.426905325769C-737.1227627149103 1096.2138998186783 -771.5001358932503 1036.6667342634373 -771.5001358932503 972.2317050506254V-172.2318103141149C-771.5001358932503 -236.66683952692676 -737.1227627149103 -296.21400508216766 -681.3181495912047 -328.4360287878884L309.817952662798 -900.6677864702588Z " transform="rotate(16.5, 400, 400)" opacity="0.44"></path><path d="M312.5507401264965 -861.2536240695265C366.66430436766564 -892.4904778945842 433.33557356202186 -892.4904778945842 487.449137803191 -861.2448791496427L1448.5508127161634 -306.3534777606776C1502.6643769573325 -275.11662393561994 1536.0000115545108 -217.3739179426592 1536.0000115545108 -154.8914653726597V954.89133740527C1536.0000115545108 1017.37378997527 1502.6643769573325 1075.1164959682305 1448.5508127161634 1106.3620947131722L487.449137803191 1661.2534961021365C433.33557356202186 1692.4903499271945 366.66430436766564 1692.4903499271945 312.5507401264965 1661.2447511822534L-648.5509347864759 1106.353349793288C-702.6644990276451 1075.1164959682305 -736.0001336248232 1017.37378997527 -736.0001336248232 954.89133740527V-154.8914653726597C-736.0001336248232 -217.3739179426592 -702.6644990276451 -275.11662393561994 -648.5509347864759 -306.3622226805612L312.5507401264965 -861.2536240695265Z " transform="rotate(16, 400, 400)" opacity="0.45"></path><path d="M315.2835275901948 -821.8394769275833C367.70604294882764 -852.100179070608 432.29383498085986 -852.100179070608 484.7163503394927 -821.8310052864458L1415.7835979114348 -284.27996019088596C1468.2061132700674 -254.01925804786129 1500.5000092860837 -198.08101161718048 1500.5000092860837 -137.55113568999354V937.5509545011262C1500.5000092860837 998.0808304283132 1468.2061132700674 1054.0190768589937 1415.7835979114348 1084.288250643156L484.7163503394927 1621.839295738716C432.29383498085986 1652.0999978817404 367.70604294882764 1652.0999978817404 315.2835275901948 1621.8308240975784L-615.7837199817471 1084.2797790020186C-668.2062353403799 1054.0190768589937 -700.5001313563962 998.0808304283132 -700.5001313563962 937.5509545011262V-137.55113568999354C-700.5001313563962 -198.08101161718048 -668.2062353403799 -254.01925804786129 -615.7837199817471 -284.2884318320232L315.2835275901948 -821.8394769275833Z " transform="rotate(15.5, 400, 400)" opacity="0.47"></path><path d="M318.0163150538931 -782.4251771977495C368.7477815299894 -811.709727658741 431.2520963996981 -811.709727658741 481.9835628757944 -782.4169788353583L1383.0163831067061 -262.2062900332036C1433.7478495828022 -232.921739572212 1465.0000070176566 -178.78795270381136 1465.0000070176566 -120.21065341943665V920.2107241848726C1465.0000070176566 978.788023469247 1433.7478495828022 1032.921810337648 1383.0163831067061 1062.2145591610306L481.9835628757944 1582.425247963185C431.2520963996981 1611.7097984241768 368.7477815299894 1611.7097984241768 318.0163150538931 1582.4170496007941L-583.0165051770184 1062.2063607986397C-633.7479716531145 1032.921810337648 -665.0001290879691 978.788023469247 -665.0001290879691 920.2107241848726V-120.21065341943665C-665.0001290879691 -178.78795270381136 -633.7479716531145 -232.921739572212 -583.0165051770184 -262.21448839559446L318.0163150538931 -782.4251771977495Z " transform="rotate(15, 400, 400)" opacity="0.49"></path><path d="M320.7491025175914 -743.0110300558063C369.789520111151 -771.3194288347647 430.2103578185363 -771.3194288347647 479.2507754120961 -743.0031049721615L1350.249168301977 -240.13277246341192C1399.2895858955367 -211.82437368445335 1429.5000047492294 -159.49504637833263 1429.5000047492294 -102.8703237367705V902.8703412807286C1429.5000047492294 959.4950639222905 1399.2895858955367 1011.8243912284113 1350.249168301977 1040.1407150910145L479.2507754120961 1543.011047599764C430.2103578185363 1571.3194463787227 369.789520111151 1571.3194463787227 320.7491025175914 1543.0031225161197L-550.2492903722897 1040.1327900073697C-599.2897079658493 1011.8243912284113 -629.500126819542 959.4950639222905 -629.500126819542 902.8703412807286V-102.8703237367705C-629.500126819542 -159.49504637833263 -599.2897079658493 -211.82437368445335 -550.2492903722897 -240.14069754705645L320.7491025175914 -743.0110300558063Z " transform="rotate(14.5, 400, 400)" opacity="0.51"></path><path d="M323.4818899812899 -703.5969897253865C370.831258692313 -730.929236822312 429.16861923737474 -730.929236822312 476.5179879483976 -703.5893379204881L1317.4819534972485 -218.05936170514383C1364.8313222082716 -190.72711460821824 1394.0000024808023 -140.20224686437757 1394.0000024808023 -85.53010086562801V885.5298515650607C1394.0000024808023 940.2019975638102 1364.8313222082716 990.7268653076508 1317.4819534972485 1018.0667642094745L476.5179879483976 1503.596740424819C429.16861923737474 1530.9289875217446 370.831258692313 1530.9289875217446 323.4818899812899 1503.5890886199209L-517.482075567561 1018.0591124045764C-564.8314442785841 990.7268653076508 -594.0001245511148 940.2019975638102 -594.0001245511148 885.5298515650607V-85.53010086562801C-594.0001245511148 -140.20224686437757 -564.8314442785841 -190.72711460821824 -517.482075567561 -218.06701351004187L323.4818899812899 -703.5969897253865Z " transform="rotate(14, 400, 400)" opacity="0.53"></path><path d="M326.2146774449882 -664.1827052543417C371.87299727347477 -690.5388006692341 428.12688065621273 -690.5388006692341 473.7852004846993 -664.1753267281897L1284.7147386925199 -195.9857068062505C1330.373058521006 -169.62961139135803 1358.5000002123752 -120.9092032097974 1358.5000002123752 -68.1896338538603V868.1896059900182C1358.5000002123752 920.9091753459552 1330.373058521006 969.6295835275157 1284.7147386925199 995.99305746856L473.7852004846993 1464.182677390499C428.12688065621273 1490.538772805392 371.87299727347477 1490.538772805392 326.2146774449882 1464.175298864347L-484.71486076283225 995.9856789424082C-530.3731805913187 969.6295835275157 -558.5001222826877 920.9091753459552 -558.5001222826877 868.1896059900182V-68.1896338538603C-558.5001222826877 -120.9092032097974 -530.3731805913187 -169.62961139135803 -484.71486076283225 -195.9930853324023L326.2146774449882 -664.1827052543417Z " transform="rotate(13.5, 400, 400)" opacity="0.54"></path><path d="M328.94758697899897 -624.7685428536095C372.91485792494905 -650.1484865864688 427.08526414536345 -650.1484865864688 471.05253509131353 -624.7614376062038L1251.9476459581035 -173.91217397766968C1295.9149169040538 -148.5322302448103 1323.0001200142606 -101.61628162552961 1323.0001200142606 -50.849288912405086V850.849238344663C1323.0001200142606 901.6162310577877 1295.9149169040538 948.5321796770684 1251.9476459581035 973.9192286573332L471.05253509131353 1424.768492285867C427.08526414536345 1450.1484360187264 372.91485792494905 1450.1484360187264 328.94758697899897 1424.7613870384616L-451.94752388779096 973.9121234099277C-495.914794833741 948.5321796770684 -522.9999979439482 901.6162310577877 -522.9999979439482 850.849238344663V-50.849288912405086C-522.9999979439482 -101.61628162552961 -495.914794833741 -148.5322302448103 -451.94752388779096 -173.91927922507512L328.94758697899897 -624.7685428536095Z " transform="rotate(13, 400, 400)" opacity="0.56"></path><path d="M331.68031340754123 -585.354319417721C373.9565354709546 -609.7581114685472 426.0434645290454 -609.7581114685472 468.31968659245877 -585.3474874490616L1219.1803701182184 -151.83858011393272C1261.456592181632 -127.43478806310645 1287.5000567106772 -82.3232990061058 1287.5000567106772 -33.50888293579362V833.5089317344641C1287.5000567106772 882.3233478047762 1261.456592181632 927.4348368617768 1219.1803701182184 951.8454608812624L468.31968659245877 1385.3543682163913C426.0434645290454 1409.7581602672171 373.9565354709546 1409.7581602672171 331.68031340754123 1385.347536247732L-419.1803701182185 951.8386289126033C-461.45659218163195 927.4348368617768 -487.5000567106773 882.3233478047762 -487.5000567106773 833.5089317344641V-33.50888293579362C-487.5000567106773 -82.3232990061058 -461.45659218163195 -127.43478806310645 -419.1803701182185 -151.8454120825918L331.68031340754123 -585.354319417721Z " transform="rotate(12.5, 400, 400)" opacity="0.58"></path><path d="M334.4131008712395 -545.9401570169887C374.99827405211636 -569.3677973857818 425.00172594788364 -569.3677973857818 465.5868991287605 -545.9335983270757L1186.4131553134896 -129.765047285352C1226.9983284943667 -106.33740691655873 1252.00005444225 -63.030377421838125 1252.00005444225 -16.16853799433852V816.1685640891089C1252.00005444225 863.0304035166084 1226.9983284943667 906.3374330113293 1186.4131553134896 929.7716320700351L465.5868991287605 1345.9401831117589C425.00172594788364 1369.367823480552 374.99827405211636 1369.367823480552 334.4131008712395 1345.9336244218457L-386.4131553134897 929.7650733801224C-426.99832849436666 906.3374330113293 -452.00005444225025 863.0304035166084 -452.00005444225025 816.1685640891089V-16.16853799433852C-452.00005444225025 -63.030377421838125 -426.99832849436666 -106.33740691655873 -386.4131553134897 -129.77160597526472L334.4131008712395 -545.9401570169887Z " transform="rotate(12, 400, 400)" opacity="0.60"></path><path d="M337.1458883349378 -506.52599461625636C376.04001263327837 -528.9774833030166 423.95998736672163 -528.9774833030166 462.8541116650622 -506.5197092050898L1153.645940508761 -107.69151445677119C1192.5400648071013 -85.24002577001102 1216.5000521738232 -43.73745583757045 1216.5000521738232 1.1718069471166928V798.8281964437538C1216.5000521738232 843.7374592284409 1192.5400648071013 885.2400291608817 1153.645940508761 907.6978032588081L462.8541116650622 1306.5259980071269C423.95998736672163 1328.977486693887 376.04001263327837 1328.977486693887 337.1458883349378 1306.5197125959603L-353.645940508761 907.691517847642C-392.5400648071014 885.2400291608817 -416.5000521738231 843.7374592284409 -416.5000521738231 798.8281964437538V1.1718069471166928C-416.5000521738231 -43.73745583757045 -392.5400648071014 -85.24002577001102 -353.645940508761 -107.69779986793765L337.1458883349378 -506.52599461625636Z " transform="rotate(11.5, 400, 400)" opacity="0.61"></path><path d="M339.8786757986362 -467.1117711803678C377.0817512144399 -488.58710818509496 422.9182487855601 -488.58710818509496 460.1213242013637 -467.10575904794763L1120.8787257040324 -85.61792059303434C1158.081801119836 -64.14258358830716 1181.000049905396 -24.444473218146527 1181.000049905396 18.512212923728157V781.4878898335548C1181.000049905396 824.4445759754296 1158.081801119836 864.1426863455902 1120.8787257040324 885.6240354827373L460.1213242013637 1267.1118739376507C422.9182487855601 1288.5872109423779 377.0817512144399 1288.5872109423779 339.8786757986362 1267.1058618052307L-320.87872570403226 885.6180233503173C-358.0818011198361 864.1426863455902 -381.00004990539605 824.4445759754296 -381.00004990539605 781.4878898335548V18.512212923728157C-381.00004990539605 -24.444473218146527 -358.0818011198361 -64.14258358830716 -320.87872570403226 -85.62393272545432L339.8786757986362 -467.1117711803678Z " transform="rotate(11, 400, 400)" opacity="0.63"></path><path d="M342.6114632623346 -427.69768507358083C378.1234897956019 -448.19687039627496 421.8765102043981 -448.19687039627496 457.3885367376654 -427.69194621990704L1088.1115108993035 -63.54446405839872C1123.6235374325709 -43.04527873570464 1145.500047636969 -5.1516279278241655 1145.500047636969 35.85248157123806V764.1474458942546C1145.500047636969 805.1515553933168 1123.6235374325709 843.0452062011973 1088.1115108993035 863.550130377565L457.3885367376654 1227.6976125390734C421.8765102043981 1248.1967978617674 378.1234897956019 1248.1967978617674 342.6114632623346 1227.6918736853997L-288.11151089930354 863.5443915238914C-323.6235374325708 843.0452062011973 -345.50004763696893 805.1515553933168 -345.50004763696893 764.1474458942546V35.85248157123806C-345.50004763696893 -5.1516279278241655 -323.6235374325708 -43.04527873570464 -288.11151089930354 -63.55020291207245L342.6114632623346 -427.69768507358083Z " transform="rotate(10.5, 400, 400)" opacity="0.65"></path><path d="M345.3442202084548 -388.2834616376923C379.1651978591856 -407.8064952783534 420.83474110565817 -407.8064952783534 454.655718756389 -388.2779960627649L1055.3442655769966 -41.47087019466176C1089.1652432277274 -21.947836554000787 1110.0000148509637 14.141354691599759 1110.0000148509637 53.19288754784952V746.8071392840559C1110.0000148509637 785.8586721403055 1089.1652432277274 821.947863385906 1055.3442655769966 841.4763626014942L454.655718756389 1188.2834884695974C420.83474110565817 1207.8065221102586 379.1651978591856 1207.8065221102586 345.3442202084548 1188.2780228946701L-255.34432661215294 841.470897026567C-289.1653042628837 821.947863385906 -310.00007588612 785.8586721403055 -310.00007588612 746.8071392840559V53.19288754784952C-310.00007588612 14.141354691599759 -289.1653042628837 -21.947836554000787 -255.34432661215294 -41.476335769589014L345.3442202084548 -388.2834616376923Z " transform="rotate(10, 400, 400)" opacity="0.67"></path><path d="M348.0770076721532 -348.869283978171C380.20693644034736 -367.41616593679896 419.7930025244964 -367.41616593679896 451.9229312926906 -348.8640916819899L1022.577050772268 -19.397322107291984C1054.7069795404623 -0.8504401486640063 1074.5000125825366 33.434291534656495 1074.5000125825366 70.53324774809369V729.4667868974896C1074.5000125825366 766.5657431109266 1054.7069795404623 800.8504747942472 1022.577050772268 819.4025490490562L451.9229312926906 1148.869318623754C419.7930025244964 1167.416200582382 380.20693644034736 1167.416200582382 348.0770076721532 1148.864126327573L-222.57711180742416 819.3973567528751C-254.7070405756184 800.8504747942472 -274.50007361769286 766.5657431109266 -274.50007361769286 729.4667868974896V70.53324774809369C-274.50007361769286 33.434291534656495 -254.7070405756184 -0.8504401486640063 -222.57711180742416 -19.40251440347288L348.0770076721532 -348.869283978171Z " transform="rotate(9.5, 400, 400)" opacity="0.68"></path><path d="M350.80979513585146 -309.4551368362278C381.24867502150926 -327.02586711282277 418.7512639433345 -327.02586711282277 449.1901438289923 -309.4502178187931L989.8098359675391 2.6761954624996633C1020.2487158531969 20.24692573909465 1039.0000103141094 52.72719786013511 1039.0000103141094 87.87357743075972V712.1264039933453C1039.0000103141094 747.27278356397 1020.2487158531969 779.7530556850106 989.8098359675391 797.3287049790401L449.1901438289923 1109.455118260333C418.7512639433345 1127.025848536928 381.24867502150926 1127.025848536928 350.80979513585146 1109.4501992428982L-189.80989700269544 797.3237859616054C-220.24877688835312 779.7530556850106 -239.0000713492658 747.27278356397 -239.0000713492658 712.1264039933453V87.87357743075972C-239.0000713492658 52.72719786013511 -220.24877688835312 20.24692573909465 -189.80989700269544 2.671276445065132L350.80979513585146 -309.4551368362278Z " transform="rotate(9, 400, 400)" opacity="0.70"></path><path d="M353.54258259954986 -270.04091340033926C382.29041360267104 -286.63549199490114 417.7095253621727 -286.63549199490114 446.4573563652939 -270.036267661651L957.0426211628103 24.749789326236623C985.7904521659316 41.344367920798504 1003.5000080456823 72.02018047955903 1003.5000080456823 105.21398340737119V694.7860973831466C1003.5000080456823 727.9799003109586 985.7904521659316 758.6557128697191 957.0426211628103 775.2549372029691L446.4573563652939 1070.040994190857C417.7095253621727 1086.6355727854188 382.29041360267104 1086.6355727854188 353.54258259954986 1070.0363484521686L-157.0426821979667 775.250291464281C-185.79051320108783 758.6557128697191 -203.50006908083873 727.9799003109586 -203.50006908083873 694.7860973831466V105.21398340737119C-203.50006908083873 72.02018047955903 -185.79051320108783 41.344367920798504 -157.0426821979667 24.745143587548455L353.54258259954986 -270.04091340033926Z " transform="rotate(8.5, 400, 400)" opacity="0.72"></path><path d="M356.27537006324826 -230.626750999607C383.3321521838328 -246.24517791213583 416.66778678101093 -246.24517791213583 443.7245689015955 -230.62237853966508L924.2754063580817 46.82332215481745C951.3321884786662 62.441749067346336 968.0000057772554 91.31310206382659 968.0000057772554 122.5543283488264V677.4457297377912C968.0000057772554 708.6869560227913 951.3321884786662 737.5583090192715 924.2754063580817 753.1811083917423L443.7245689015955 1030.6268090862245C416.66778678101093 1046.2452359987535 383.3321521838328 1046.2452359987535 356.27537006324826 1030.622436626283L-124.27546739323793 753.1767359318003C-151.33224951382255 737.5583090192715 -168.0000668124116 708.6869560227913 -168.0000668124116 677.4457297377912V122.5543283488264C-168.0000668124116 91.31310206382659 -151.33224951382255 62.441749067346336 -124.27546739323793 46.81894969487564L356.27537006324826 -230.626750999607Z " transform="rotate(8, 400, 400)" opacity="0.74"></path><path d="M359.00815752694655 -191.2126038576638C384.3738907649947 -205.85487908815958 415.62604819984904 -205.85487908815958 440.9917814378972 -191.20850467646824L891.5081915533531 68.89683972460921C916.8739247914011 83.53911495510488 932.5000035088283 110.60600838930532 932.5000035088283 139.89465803149255V660.1053468336472C932.5000035088283 689.3939964758345 916.8739247914011 716.4608899100349 891.5081915533531 731.1072643217262L440.9917814378972 991.2126087228035C415.62604819984904 1005.8548839532993 384.3738907649947 1005.8548839532993 359.00815752694655 991.208509541608L-91.50825258850921 731.1031651405308C-116.87398582655726 716.4608899100349 -132.50006454398454 689.3939964758345 -132.50006454398454 660.1053468336472V139.89465803149255C-132.50006454398454 110.60600838930532 -116.87398582655726 83.53911495510488 -91.50825258850921 68.89274054341377L359.00815752694655 -191.2126038576638Z " transform="rotate(7.5, 400, 400)" opacity="0.75"></path><path d="M361.74094499064495 -151.79842619814247C385.4156293461565 -165.46454974660517 414.58430961868737 -165.46454974660517 438.2589939741988 -151.79460029569327L858.7409767486242 90.97038781197887C882.4156611041358 104.63651136044166 897.0000012404012 129.89894523236194 897.0000012404012 157.23501823173683V642.7649944470811C897.0000012404012 670.101067446456 882.4156611041358 695.3635013183762 858.7409767486242 709.033450769288L438.2589939741988 951.7984388769603C414.58430961868737 965.4645624254231 385.4156293461565 965.4645624254231 361.74094499064495 951.7946129745112L-58.741037783780484 709.029624866839C-82.41572213929203 695.3635013183762 -97.00006227555741 670.101067446456 -97.00006227555741 642.7649944470811V157.23501823173683C-97.00006227555741 129.89894523236194 -82.41572213929203 104.63651136044166 -58.741037783780484 90.96656190952984L361.74094499064495 -151.79842619814247Z " transform="rotate(7, 400, 400)" opacity="0.77"></path><path d="M364.47373245434324 -112.38421802104301C386.4573679273183 -125.07418988747267 413.5425710375255 -125.07418988747267 435.5262065105005 -112.38066539734018L825.9737619438956 113.04396641692688C847.9573974168707 125.73393828335657 861.499998971974 149.1919125929969 861.499998971974 174.57540894955923V625.4246725780932C861.499998971974 650.8081689346554 847.9573974168707 674.266143244296 825.9737619438956 686.9596677344284L435.5262065105005 912.3842995486953C413.5425710375255 925.0742714151249 386.4573679273183 925.0742714151249 364.47373245434324 912.3807469249925L-25.97382297905176 686.9561151107255C-47.95745845202674 674.266143244296 -61.500060007130344 650.8081689346554 -61.500060007130344 625.4246725780932V174.57540894955923C-61.500060007130344 149.1919125929969 -47.95745845202674 125.73393828335657 -25.97382297905176 113.04041379322416L364.47373245434324 -112.38421802104301Z " transform="rotate(6.5, 400, 400)" opacity="0.79"></path><path d="M367.20651991804164 -72.97011665546694C387.49910650848005 -84.6839368398636 412.5008324563637 -84.6839368398636 432.7934190468021 -72.96683731051053L793.2065471391666 135.11743821035134C813.4991337296051 146.83125839474798 825.9999967035469 168.48477314210828 825.9999967035469 191.91569285585808V608.0842438975818C825.9999967035469 631.5151636113316 813.4991337296051 653.168678358692 793.2065471391666 664.8857778880449L432.7934190468021 872.9700534089068C412.5008324563637 884.6838735933034 387.49910650848005 884.6838735933034 367.20651991804164 872.9667740639502L6.79339182567702 664.8824985430886C-13.499194764761455 653.168678358692 -26.00005773870322 631.5151636113316 -26.00005773870322 608.0842438975818V191.91569285585808C-26.00005773870322 168.48477314210828 -13.499194764761455 146.83125839474798 6.79339182567702 135.11415886539498L367.20651991804164 -72.97011665546694Z " transform="rotate(6, 400, 400)" opacity="0.81"></path><path d="M369.93930738174004 -33.55589321957842C388.54084508964183 -44.29356172194201 411.4590938752019 -44.29356172194201 430.0606315831037 -33.552887153368374L760.4393323344381 157.1910320740883C779.04087004234 167.9287005764519 790.4999944351198 187.7777557615322 790.4999944351198 209.25609883246955V590.7439372873829C790.4999944351198 612.2222803583203 779.04087004234 632.0713355434006 760.4393323344381 642.8120101119741L430.0606315831037 833.5559293394308C411.4590938752019 844.2935978417945 388.54084508964183 844.2935978417945 369.93930738174004 833.5529232732208L39.56060663040574 642.8090040457641C20.959068922503832 632.0713355434006 9.499944529723848 612.2222803583203 9.499944529723848 590.7439372873829V209.25609883246955C9.499944529723848 187.7777557615322 20.959068922503832 167.9287005764519 39.56060663040574 157.1880260078783L369.93930738174004 -33.55589321957842Z " transform="rotate(5.5, 400, 400)" opacity="0.82"></path><path d="M372.67212536301645 5.858208145997594C389.58261418838185 -3.9033086743329477 410.41738581161815 -3.9033086743329477 427.32787463698355 5.860940933461279L727.6721480472874 179.26450386751287C744.5826368726528 189.02602068784336 755.0000226842709 207.07061631064363 755.0000226842709 226.5963827387685V573.4035086068717C755.0000226842709 592.9292750349965 744.5826368726528 610.9738706577967 727.6721480472874 620.7381202655909L427.32787463698355 794.1416831996426C410.41738581161815 803.9032000199732 389.58261418838185 803.9032000199732 372.67212536301645 794.1389504121789L72.32785195271259 620.7353874781272C55.417363127347244 610.9738706577967 44.9999773157291 592.9292750349965 44.9999773157291 573.4035086068717V226.5963827387685C44.9999773157291 207.07061631064363 55.417363127347244 189.02602068784336 72.32785195271259 179.26177108004924L372.67212536301645 5.858208145997594Z " transform="rotate(5, 400, 400)" opacity="0.84"></path><path d="M375.40491282671474 45.27243158188611C390.62435276954375 36.487066443588645 409.37564723045625 36.487066443588645 424.59508717328526 45.27489109060343L694.9049332425586 201.33809773124983C710.1243731853875 210.12346286954732 719.5000204158438 226.36359893006755 719.5000204158438 243.93678871537986V556.0632019966727C719.5000204158438 573.636391781985 710.1243731853875 589.8765278425053 694.9049332425586 598.6643524895201L424.59508717328526 754.7275591301665C409.37564723045625 763.512924268464 390.62435276954375 763.512924268464 375.40491282671474 754.7250996214491L105.09506675744137 598.6618929808027C89.87562681461253 589.8765278425053 80.49997958415616 573.636391781985 80.49997958415616 556.0632019966727V243.93678871537986C80.49997958415616 226.36359893006755 89.87562681461253 210.12346286954732 105.09506675744137 201.33563822253257L375.40491282671474 45.27243158188611Z " transform="rotate(4.5, 400, 400)" opacity="0.86"></path><path d="M378.13770029041325 84.6866245001965C391.6660913507055 76.87741104393209 408.3339086492945 76.87741104393209 421.86229970958675 84.68881073016746L662.1377184378299 223.41166107740872C675.6661094981222 231.22087453367317 684.0000181474168 245.6565510319133 684.0000181474168 261.2771641744132V538.7228648688956C684.0000181474168 554.3434780113956 675.6661094981222 568.7791545096358 662.1377184378299 576.5905541958712L421.86229970958675 715.3134045431123C408.3339086492945 723.1226179993768 391.6660913507055 723.1226179993768 378.13770029041325 715.3112183131415L137.8622815621701 576.5883679659001C124.33389050187776 568.7791545096358 115.99998185258323 554.3434780113956 115.99998185258323 538.7228648688956V261.2771641744132C115.99998185258323 245.6565510319133 124.33389050187776 231.22087453367317 137.8622815621701 223.40947484743782L378.13770029041325 84.6866245001965Z " transform="rotate(4, 400, 400)" opacity="0.88"></path><path d="M380.8705030129006 124.10078690092877C392.70784519065637 117.2677251266974 407.29218532692175 117.2677251266974 419.1295275046775 124.10269985215336L629.3705188918902 245.48519390598943C641.207861069646 252.31825568022083 648.5000311377787 264.94947261618097 648.5000311377787 278.6175091158684V521.3824972235406C648.5000311377787 535.050533723228 641.207861069646 547.6817506591881 629.3705188918902 554.516725384644L419.1295275046775 675.8992194384801C407.29218532692175 682.7322812127115 392.70784519065637 682.7322812127115 380.8705030129006 675.8973064872556L170.62951162568788 554.5148124334195C158.7921694479321 547.6817506591881 151.49999937979942 535.050533723228 151.49999937979942 521.3824972235406V278.6175091158684C151.49999937979942 264.94947261618097 158.7921694479321 252.31825568022083 170.62951162568788 245.48328095476495L380.8705030129006 124.10078690092877Z " transform="rotate(3.5, 400, 400)" opacity="0.89"></path><path d="M383.6032752178099 163.51494930166103C393.7495685130291 157.65803920946274 406.2504314869709 157.65803920946274 416.3967247821901 163.51658897413927L596.6032888283723 267.5587267345702C606.7495821235916 273.4156368267685 613.0000136105625 284.24239420044864 613.0000136105625 295.9578540573236V504.0421295781855C613.0000136105625 515.7575894350603 606.7495821235916 526.5843468087405 596.6032888283723 532.442896573417L416.3967247821901 636.4850343338479C406.2504314869709 642.3419444260462 393.7495685130291 642.3419444260462 383.6032752178099 636.4833946613696L203.39671117162754 532.4412569009388C193.25041787640833 526.5843468087405 186.99998638943742 515.7575894350603 186.99998638943742 504.0421295781855V295.9578540573236C186.99998638943742 284.24239420044864 193.25041787640833 273.4156368267685 203.39671117162754 267.557087062092L383.6032752178099 163.51494930166103Z " transform="rotate(3, 400, 400)" opacity="0.91"></path><path d="M386.3360626815082 202.92914221997142C394.7913070941909 198.04838380980618 405.2086929058091 198.04838380980618 413.6639373184918 202.9305086137033L563.8360740236437 289.6322900807291C572.2913184363264 294.51304849089433 577.5000113421354 303.53534630229444 577.5000113421354 313.2982295163569V486.70179245040845C577.5000113421354 496.46467566447086 572.2913184363264 505.4869734758711 563.8360740236437 510.3690982797681L413.6639373184918 597.0708797467939C405.2086929058091 601.9516381569592 394.7913070941909 601.9516381569592 386.3360626815082 597.0695133530621L236.16392597635632 510.36773188603627C227.70868156367362 505.4869734758711 222.49998865786455 496.46467566447086 222.49998865786455 486.70179245040845V313.2982295163569C222.49998865786455 303.53534630229444 227.70868156367362 294.51304849089433 236.16392597635632 289.6309236869973L386.3360626815082 202.92914221997142Z " transform="rotate(2.5, 400, 400)" opacity="0.93"></path><path d="M389.0688501452066 242.34328936191469C395.83304567535276 238.43868263378243 404.16695432464724 238.43868263378243 410.9311498547934 242.34438247690014L531.0688592189149 311.7058076505208C537.8330547490611 315.610414378653 542.0000090737084 322.82825262777305 542.0000090737084 330.638559199023V469.3614095462642C542.0000090737084 477.1717161175142 537.8330547490611 484.3895543666343 531.0688592189149 488.295254209752L410.9311498547934 557.6566793833725C404.16695432464724 561.5612861115048 395.83304567535276 561.5612861115048 389.0688501452066 557.6555862683872L268.93114078108505 488.2941610947665C262.1669452509389 484.3895543666343 257.9999909262916 477.1717161175142 257.9999909262916 469.3614095462642V330.638559199023C257.9999909262916 322.82825262777305 262.1669452509389 315.610414378653 268.93114078108505 311.70471453553535L389.0688501452066 242.34328936191469Z " transform="rotate(2, 400, 400)" opacity="0.95"></path><path d="M391.8016376089049 281.7574822802251C396.87478425651454 278.8290272341259 403.12521574348546 278.8290272341259 408.1983623910951 281.75830211646417L498.30164441418617 333.77937099667963C503.3747910617958 336.7078260427788 506.50000680528126 342.12120472961885 506.50000680528126 347.97893465805635V452.0210724184873C506.50000680528126 457.87880234692466 503.3747910617958 463.2921810337648 498.30164441418617 466.221455916103L408.1983623910951 518.2425247963185C403.12521574348546 521.1709798424176 396.87478425651454 521.1709798424176 391.8016376089049 518.2417049600793L301.6983555858138 466.22063607986394C296.6252089382042 463.2921810337648 293.49999319471874 457.87880234692466 293.49999319471874 452.0210724184873V347.97893465805635C293.49999319471874 342.12120472961885 296.6252089382042 336.7078260427788 301.6983555858138 333.77855116044054L391.8016376089049 281.7574822802251Z " transform="rotate(1.5, 400, 400)" opacity="0.96"></path><path d="M394.5344250726033 321.1716523103519C397.9165228376764 319.2193489462858 402.0834771623236 319.2193489462858 405.4655749273967 321.1721988678446L465.53442960945745 355.85291145465493C468.9165273745306 357.805214818721 471.0000045368542 361.41413394328106 471.0000045368542 365.31928722890603V434.68071240252664C471.0000045368542 438.58586568815167 468.9165273745306 442.19478481271165 465.53442960945745 444.1476347342705L405.4655749273967 478.8283473210808C402.0834771623236 480.78065068514695 397.9165228376764 480.78065068514695 394.5344250726033 478.82780076358813L334.4655703905425 444.14708817677774C331.0834726254694 442.19478481271165 328.9999954631458 438.58586568815167 328.9999954631458 434.68071240252664V365.31928722890603C328.9999954631458 361.41413394328106 331.0834726254694 357.805214818721 334.4655703905425 355.8523648971622L394.5344250726033 321.1716523103519Z " transform="rotate(1, 400, 400)" opacity="0.98"></path><path d="M397.26721253630166 360.58583759926773C398.95826141883816 359.6096859172347 401.04173858116184 359.6096859172347 402.73278746369834 360.5861108780141L432.7672148047287 377.92646717141923C434.4582636872653 378.9026188534523 435.5000022684271 380.7070784157323 435.5000022684271 382.6596550585448V417.3403676453551C435.5000022684271 419.29294428816763 434.4582636872653 421.0974038504476 432.7672148047287 422.07382881122703L402.73278746369834 439.4141851046322C401.04173858116184 440.3903367866653 398.95826141883816 440.3903367866653 397.26721253630166 439.41391182588586L367.2327851952713 422.07355553248067C365.5417363127347 421.0974038504476 364.49999773157293 419.29294428816763 364.49999773157293 417.3403676453551V382.6596550585448C364.49999773157293 380.7070784157323 365.5417363127347 378.9026188534523 367.2327851952713 377.92619389267287L397.26721253630166 360.58583759926773Z " transform="rotate(0.5, 400, 400)" opacity="1.00"></path></g></svg>