<?xml version="1.0" standalone="no"?>
<!DOCTYPE svg PUBLIC "-//W3C//DTD SVG 20010904//EN"
 "http://www.w3.org/TR/2001/REC-SVG-20010904/DTD/svg10.dtd">
<svg version="1.0" xmlns="http://www.w3.org/2000/svg"
 width="479.000000pt" height="271.000000pt" viewBox="0 0 479.000000 271.000000"
 preserveAspectRatio="xMidYMid meet">

<g transform="translate(0.000000,271.000000) scale(0.100000,-0.100000)"
fill="#000000" stroke="none">
<path d="M501 2513 c-35 -109 -66 -206 -68 -215 -5 -17 17 -18 364 -18 l369 0
67 208 c37 114 67 210 67 215 0 4 -165 7 -368 7 l-368 0 -63 -197z"/>
<path d="M2811 2613 c-17 -54 -48 -151 -70 -216 l-40 -117 372 2 371 3 68 205
c37 113 67 208 68 213 0 4 -166 7 -370 7 l-369 0 -30 -97z"/>
<path d="M3990 2509 c-36 -111 -66 -208 -68 -215 -3 -12 57 -14 365 -14 l369
0 67 204 c37 112 67 209 67 215 0 8 -109 11 -367 11 l-368 0 -65 -201z"/>
<path d="M1581 2494 c-138 -113 -251 -207 -251 -210 0 -2 208 -4 463 -4 l462
0 225 191 c124 105 234 199 245 210 19 19 13 19 -437 19 l-457 0 -250 -206z"/>
<path d="M361 2077 c-15 -39 -361 -1104 -361 -1111 0 -3 166 -6 368 -6 l368 0
108 333 c60 182 111 335 115 339 3 3 98 -146 211 -333 l205 -339 393 0 c312 0
392 3 386 13 -4 6 -120 180 -257 385 -136 206 -250 379 -253 386 -2 6 83 86
190 176 107 91 195 168 195 173 1 4 -373 7 -829 7 l-830 0 -9 -23z"/>
<path d="M2551 1815 c-103 -319 -117 -382 -102 -472 28 -173 156 -296 370
-356 73 -20 100 -21 742 -25 l665 -3 182 558 c100 307 182 564 182 571 0 9
-83 12 -367 10 l-367 -3 -115 -352 -115 -353 -237 0 -236 0 113 348 c63 191
114 350 114 355 0 4 -166 7 -368 7 l-368 0 -93 -285z"/>
<path d="M3391 786 c-7 -8 -11 -27 -9 -43 6 -51 88 -41 88 11 0 42 -53 63 -79
32z"/>
<path d="M0 480 l0 -290 35 0 34 0 3 136 3 136 114 -136 114 -136 48 0 c27 0
49 3 49 8 0 4 -58 72 -129 152 l-128 145 124 138 125 137 -50 0 -51 0 -108
-126 -108 -127 -3 127 -3 126 -34 0 -35 0 0 -290z"/>
<path d="M2360 563 c0 -121 5 -225 11 -248 22 -78 106 -135 200 -135 56 0 132
27 161 57 54 56 61 90 66 321 l4 212 -40 0 -41 0 -3 -212 c-3 -190 -5 -216
-23 -245 -51 -86 -193 -81 -237 7 -15 30 -18 65 -18 243 l0 207 -40 0 -40 0 0
-207z"/>
<path d="M3630 717 c-21 -10 -26 -21 -28 -60 -3 -46 -4 -47 -38 -47 -31 0 -34
-2 -34 -30 0 -27 3 -30 34 -30 l33 0 5 -149 c5 -169 13 -191 73 -211 20 -7 52
-9 71 -6 30 6 34 10 34 39 0 32 -1 33 -37 29 -57 -7 -63 9 -63 165 l0 133 50
0 c49 0 50 1 50 30 0 29 -1 30 -50 30 l-50 0 0 60 c0 64 -5 70 -50 47z"/>
<path d="M560 604 c-96 -41 -145 -148 -120 -261 28 -123 134 -187 258 -153 84
22 152 115 152 206 0 59 -24 128 -56 163 -52 59 -157 79 -234 45z m160 -69
c21 -13 50 -88 50 -132 0 -60 -27 -121 -61 -138 -15 -8 -49 -15 -75 -15 -39 0
-51 5 -79 33 -80 80 -46 245 55 266 35 7 86 1 110 -14z"/>
<path d="M1090 613 c-8 -3 -27 -15 -42 -25 -28 -19 -28 -19 -28 1 0 18 -6 21
-40 21 l-40 0 0 -210 0 -210 40 0 40 0 0 140 c0 144 7 179 44 209 25 21 85 16
110 -8 19 -20 21 -34 24 -181 l3 -160 40 0 39 0 0 140 c0 158 10 192 61 214
38 16 72 10 96 -16 15 -17 18 -42 21 -180 l3 -159 37 3 37 3 -1 160 c-1 168
-7 198 -52 238 -45 41 -144 34 -191 -14 l-30 -30 -29 32 c-23 26 -37 32 -78
35 -27 2 -56 1 -64 -3z"/>
<path d="M1795 606 c-17 -7 -37 -21 -45 -31 -14 -17 -15 -16 -20 6 -5 19 -13
25 -43 27 l-37 3 0 -306 0 -306 38 3 37 3 3 113 3 112 28 -21 c69 -51 186 -27
235 48 55 83 55 229 0 301 -45 58 -130 78 -199 48z m123 -78 c62 -52 50 -213
-19 -262 -31 -21 -98 -20 -125 2 -35 28 -44 56 -44 136 0 66 3 78 26 105 41
49 115 57 162 19z"/>
<path d="M3055 604 c-16 -9 -36 -23 -42 -32 -11 -14 -13 -12 -13 11 0 25 -3
27 -40 27 l-40 0 0 -210 0 -210 40 0 40 0 0 143 c0 123 3 146 20 174 34 57
115 62 154 10 17 -24 21 -46 24 -177 l4 -150 35 0 35 0 -4 168 c-3 144 -6 171
-23 199 -35 59 -125 81 -190 47z"/>
<path d="M3382 403 l3 -208 38 -3 37 -3 0 210 0 211 -40 0 -40 0 2 -207z"/>
<path d="M3802 598 c3 -7 40 -101 83 -209 l77 -195 -27 -56 c-28 -60 -55 -79
-99 -71 -26 5 -27 4 -24 -28 3 -34 3 -34 55 -34 41 1 58 6 79 25 36 35 46 54
155 330 l97 245 -36 3 c-21 2 -38 -2 -43 -10 -5 -7 -31 -77 -60 -156 -28 -78
-55 -144 -58 -146 -4 -3 -31 66 -62 152 l-55 157 -43 3 c-33 3 -42 0 -39 -10z"/>
</g>
</svg>
